<svg preserveAspectRatio="none" width="100%" height="100%" overflow="visible" style="display: block;" viewBox="0 0 24 24" fill="none" xmlns="http://www.w3.org/2000/svg">
<g id="arrow_forward_ios">
<mask id="mask0_0_1977" style="mask-type:alpha" maskUnits="userSpaceOnUse" x="0" y="0" width="24" height="24">
<rect id="Bounding box" width="24" height="24" fill="var(--fill-0, #D9D9D9)"/>
</mask>
<g mask="url(#mask0_0_1977)">
<path id="arrow_forward_ios_2" d="M14.477 11.9984L7.12697 4.64844C6.87697 4.39844 6.75613 4.1026 6.76447 3.76094C6.7728 3.41927 6.90197 3.12344 7.15197 2.87344C7.40197 2.62344 7.6978 2.49844 8.03947 2.49844C8.38113 2.49844 8.67697 2.62344 8.92697 2.87344L16.602 10.5734C16.802 10.7734 16.952 10.9984 17.052 11.2484C17.152 11.4984 17.202 11.7484 17.202 11.9984C17.202 12.2484 17.152 12.4984 17.052 12.7484C16.952 12.9984 16.802 13.2234 16.602 13.4234L8.90197 21.1234C8.65197 21.3734 8.3603 21.4943 8.02697 21.4859C7.69363 21.4776 7.40197 21.3484 7.15197 21.0984C6.90197 20.8484 6.77697 20.5526 6.77697 20.2109C6.77697 19.8693 6.90197 19.5734 7.15197 19.3234L14.477 11.9984Z" fill="var(--fill-0, white)"/>
</g>
</g>
</svg>
