<svg preserveAspectRatio="none" width="100%" height="100%" overflow="visible" style="display: block;" viewBox="0 0 24 24" fill="none" xmlns="http://www.w3.org/2000/svg">
<g id="arrow_forward_ios">
<mask id="mask0_0_1982" style="mask-type:alpha" maskUnits="userSpaceOnUse" x="0" y="0" width="24" height="24">
<rect id="Bounding box" width="24" height="24" fill="var(--fill-0, #D9D9D9)"/>
</mask>
<g mask="url(#mask0_0_1982)">
<path id="arrow_forward_ios_2" d="M14.4723 11.9984L7.12228 4.64844C6.87228 4.39844 6.75144 4.1026 6.75978 3.76094C6.76811 3.41927 6.89728 3.12344 7.14728 2.87344C7.39728 2.62344 7.69311 2.49844 8.03478 2.49844C8.37645 2.49844 8.67228 2.62344 8.92228 2.87344L16.5973 10.5734C16.7973 10.7734 16.9473 10.9984 17.0473 11.2484C17.1473 11.4984 17.1973 11.7484 17.1973 11.9984C17.1973 12.2484 17.1473 12.4984 17.0473 12.7484C16.9473 12.9984 16.7973 13.2234 16.5973 13.4234L8.89728 21.1234C8.64728 21.3734 8.35561 21.4943 8.02228 21.4859C7.68894 21.4776 7.39728 21.3484 7.14728 21.0984C6.89728 20.8484 6.77228 20.5526 6.77228 20.2109C6.77228 19.8693 6.89728 19.5734 7.14728 19.3234L14.4723 11.9984Z" fill="var(--fill-0, white)"/>
</g>
</g>
</svg>
