<svg preserveAspectRatio="none" width="100%" height="100%" overflow="visible" style="display: block;" viewBox="0 0 27.9743 25.2496" fill="none" xmlns="http://www.w3.org/2000/svg">
<path id="concierge" d="M12.9743 25.2496C12.6906 25.2496 12.453 25.1538 12.2617 24.9622C12.0701 24.7709 11.9743 24.5334 11.9743 24.2496C11.9743 23.9658 12.0701 23.7282 12.2617 23.5369C12.453 23.3454 12.6906 23.2496 12.9743 23.2496H26.9743C27.2581 23.2496 27.4957 23.3454 27.687 23.5369C27.8786 23.7282 27.9743 23.9658 27.9743 24.2496C27.9743 24.5334 27.8786 24.7709 27.687 24.9622C27.4957 25.1538 27.2581 25.2496 26.9743 25.2496H12.9743ZM13.3077 21.6599C13.3077 19.9881 13.8466 18.5334 14.9243 17.2956C16.0021 16.058 17.3521 15.3221 18.9743 15.0879V14.3959C18.9743 14.1206 19.0701 13.885 19.2617 13.6892C19.453 13.4937 19.6906 13.3959 19.9743 13.3959C20.2494 13.3959 20.4849 13.4937 20.6807 13.6892C20.8764 13.885 20.9743 14.1206 20.9743 14.3959V15.0879C22.5828 15.3221 23.9293 16.058 25.014 17.2956C26.0987 18.5334 26.641 19.9881 26.641 21.6599H13.3077ZM0 10.8649C0 11.5127 0.226889 12.0636 0.680667 12.5176C1.13467 12.9714 1.68556 13.1982 2.33333 13.1982C2.98111 13.1982 3.532 12.9714 3.986 12.5176C4.43978 12.0636 4.66667 11.5127 4.66667 10.8649V2.76257C4.66667 2.11457 4.43978 1.56368 3.986 1.10991C3.532 0.656128 2.98111 0.429239 2.33333 0.429239C1.68556 0.429239 1.13467 0.656128 0.680667 1.10991C0.226889 1.56368 0 2.11457 0 2.76257V10.8649ZM6.66667 11.1162C6.66667 11.6991 6.86789 12.1918 7.27033 12.5942C7.673 12.9969 8.16578 13.1982 8.74867 13.1982H9.141C9.29322 13.1982 9.43722 13.1837 9.573 13.1546C9.709 13.1255 9.84622 13.0887 9.98467 13.0442L18.6487 9.83924C19.0009 9.7008 19.2842 9.47646 19.4987 9.16624C19.7131 8.85602 19.8203 8.51113 19.8203 8.13157V8.11891C19.8203 7.80602 19.711 7.54013 19.4923 7.32124C19.2734 7.10257 19.0076 6.99324 18.6947 6.99324H15.1537L12.7923 7.85224C12.6401 7.91024 12.4927 7.90802 12.35 7.84557C12.2071 7.78335 12.1067 7.67613 12.0487 7.52391C11.982 7.36324 11.9854 7.20602 12.059 7.05224C12.1323 6.89824 12.2494 6.79224 12.4103 6.73424L15.128 5.81357H23.9743C24.617 5.81357 25.1837 5.58802 25.6743 5.13691C26.1648 4.68557 26.41 4.1248 26.41 3.45457L17.1333 0.15224C16.9009 0.0582395 16.6586 0.00779375 16.4063 0.000904865C16.1541 -0.00598402 15.9076 0.0264619 15.6667 0.0982397L8.428 2.17524C7.90156 2.33591 7.47633 2.62824 7.15233 3.05224C6.82856 3.47624 6.66667 3.95824 6.66667 4.49824V11.1162Z" fill="var(--fill-0, #F0F0F0)"/>
</svg>
