<svg preserveAspectRatio="none" width="100%" height="100%" overflow="visible" style="display: block;" viewBox="0 0 24.3073 24.3073" fill="none" xmlns="http://www.w3.org/2000/svg">
<path id="activity_zone" d="M3.33333 24.3073C2.41022 24.3073 1.62389 23.9826 0.974333 23.333C0.324778 22.6834 0 21.8971 0 20.974C0 20.2271 0.22 19.566 0.66 18.9907C1.10022 18.4156 1.658 18.0178 2.33333 17.7973V6.51C1.658 6.28956 1.10022 5.89178 0.66 5.31667C0.22 4.74133 0 4.08022 0 3.33333C0 2.41022 0.324778 1.62389 0.974333 0.974333C1.62389 0.324777 2.41022 0 3.33333 0C4.08022 0 4.74133 0.22 5.31667 0.66C5.89178 1.10022 6.28956 1.658 6.51 2.33333H17.7973C18.0042 1.658 18.3952 1.10022 18.9703 0.66C19.5454 0.22 20.2133 0 20.974 0C21.8971 0 22.6834 0.324777 23.333 0.974333C23.9826 1.62389 24.3073 2.41022 24.3073 3.33333C24.3073 4.094 24.0873 4.76189 23.6473 5.337C23.2071 5.91211 22.6493 6.30311 21.974 6.51V17.7973C22.6493 18.0178 23.2071 18.4156 23.6473 18.9907C24.0873 19.566 24.3073 20.2271 24.3073 20.974C24.3073 21.8971 23.9826 22.6834 23.333 23.333C22.6834 23.9826 21.8971 24.3073 20.974 24.3073C20.2271 24.3073 19.566 24.0873 18.9907 23.6473C18.4156 23.2071 18.0178 22.6493 17.7973 21.974H6.51C6.28956 22.6493 5.89178 23.2071 5.31667 23.6473C4.74133 24.0873 4.08022 24.3073 3.33333 24.3073ZM6.51 19.974H17.7973C17.9631 19.4476 18.2358 18.9947 18.6153 18.6153C18.9947 18.2358 19.4476 17.9631 19.974 17.7973V6.51C19.4476 6.35289 18.9924 6.08244 18.6087 5.69867C18.2249 5.31489 17.9544 4.85978 17.7973 4.33333H6.51C6.34422 4.85978 6.07156 5.31267 5.692 5.692C5.31267 6.07156 4.85978 6.34422 4.33333 6.51V17.7973C4.85978 17.9631 5.31267 18.2358 5.692 18.6153C6.07156 18.9947 6.34422 19.4476 6.51 19.974Z" fill="var(--fill-0, #F0F0F0)"/>
</svg>
