<svg preserveAspectRatio="none" width="100%" height="100%" overflow="visible" style="display: block;" viewBox="0 0 22 22" fill="none" xmlns="http://www.w3.org/2000/svg">
<path id="Vector" d="M21.7887 8.95924H11.2343V13.1884H17.2989C17.2014 13.7869 16.9825 14.3757 16.662 14.9126C16.2947 15.5277 15.8406 15.996 15.3752 16.3526C13.9811 17.4209 12.3557 17.6394 11.227 17.6394C8.3755 17.6394 5.93911 15.7964 4.99594 13.2922C4.95788 13.2013 4.9326 13.1074 4.90182 13.0147C4.6934 12.3773 4.57952 11.7023 4.57952 11.0007C4.57952 10.2705 4.70284 9.57159 4.92769 8.91147C5.81459 6.30796 8.3059 4.36339 11.229 4.36339C11.817 4.36339 12.3831 4.43337 12.9201 4.57296C14.1471 4.89198 15.0151 5.52028 15.547 6.01726L18.7562 2.87444C16.804 1.08457 14.2592 2.70616e-09 11.2237 2.70616e-09C8.79693 -5.2231e-05 6.55646 0.75605 4.72047 2.03389C3.23153 3.07018 2.0104 4.45764 1.18628 6.06903C0.419733 7.56311 0 9.21883 0 10.999C0 12.7793 0.420375 14.4523 1.18693 15.9325V15.9425C1.99659 17.514 3.1806 18.8671 4.61964 19.8987C5.87679 20.7998 8.13099 22 11.2237 22C13.0022 22 14.5785 21.6793 15.9686 21.0784C16.9714 20.6449 17.8599 20.0795 18.6643 19.3528C19.7272 18.3927 20.5597 17.205 21.1279 15.8386C21.6961 14.4722 22 12.927 22 11.2518C22 10.4716 21.9216 9.67927 21.7887 8.95916V8.95924Z" fill="var(--fill-0, black)"/>
</svg>
