<svg preserveAspectRatio="none" width="100%" height="100%" overflow="visible" style="display: block;" viewBox="0 0 56.0015 28.2518" fill="none" xmlns="http://www.w3.org/2000/svg">
<g id="Desa Seminyak Logo">
<path id="Vector" d="M2.97546 0.445266C5.94024 0.439441 8.71285 0.275876 11.4079 1.79739C13.1131 2.77439 14.3554 4.39422 14.8568 6.29441C15.4478 8.45532 15.202 10.973 14.0657 12.9149C13.1176 14.535 11.1646 16.0802 9.35198 16.5708C7.3905 17.3259 4.73773 17.0496 2.64559 17.1362C2.06548 17.1602 0.62634 17.204 0.127386 17.1087C-0.0291817 16.9838 -0.0327463 16.5716 0.069444 16.4802C0.492375 16.1019 1.65085 16.1848 2.23843 16.0735C2.25847 15.0906 2.21449 13.9148 2.21301 12.9025L2.22427 4.9319C2.23057 3.85301 2.18645 2.54823 2.24565 1.48582C1.89752 1.48882 0.332549 1.43322 0.110347 1.26774C-0.00388397 1.05132 0.0275421 0.714977 0.181675 0.529548C0.446301 0.411709 2.50258 0.454828 2.97546 0.445266ZM3.67762 16.0613C4.29698 16.0317 4.94576 16.187 5.5722 16.2204C7.63674 16.3304 9.93161 15.7348 11.4529 14.2728C12.6454 13.3304 13.4148 11.5268 13.5828 10.0595C14.1219 5.35066 11.5746 1.98195 6.83848 1.42409C5.74981 1.29587 4.71856 1.38689 3.64493 1.33103C3.72591 2.24014 3.68953 3.64042 3.68953 4.57995L3.68331 10.3668L3.69909 14.1062C3.70183 14.5914 3.73947 15.6317 3.67762 16.0613Z" fill="var(--fill-0, #DECBB0)"/>
<path id="Vector_2" d="M48.3419 0.221879L48.4576 0.21875C48.5567 0.293513 48.5797 0.4047 48.6223 0.526451L52.2965 11.3865L53.3589 14.4746C53.5084 14.9124 53.8179 15.7409 53.8857 16.172C54.5377 16.1627 55.2645 16.2572 55.9573 16.2529C55.9777 16.4807 56.0721 16.9747 55.9004 17.1375C55.1262 17.201 53.8109 17.146 52.982 17.1589C52.4074 17.1679 50.6639 17.1903 50.2184 17.114C50.0915 16.9798 50.1145 16.4195 50.2314 16.3741C50.8321 16.1404 51.8006 16.2025 52.4669 16.1901C52.2631 15.7474 52.0201 14.9051 51.8497 14.4105C51.4794 13.3366 51.0243 12.1262 50.7235 11.0364L47.3857 11.0384C46.3638 11.0321 45.3036 11.0708 44.2865 11.0284C44.0822 11.9253 43.5376 13.2498 43.2411 14.1593C43.0659 14.6964 42.7595 15.7089 42.5622 16.1673C43.2224 16.2271 44.0313 16.2199 44.6503 16.3159C44.6933 16.5393 44.7242 16.8729 44.752 17.1071C44.4795 17.16 39.7755 17.1849 39.546 17.1344C39.4434 17.0139 39.3621 16.6882 39.4543 16.5591C39.8372 16.0248 40.7587 16.3276 41.3073 16.1207C41.4577 16.064 41.4825 15.9481 41.5468 15.814C42.1288 14.255 42.6482 12.6731 43.2007 11.1042L44.9324 6.19599C45.1428 5.61393 45.3988 5.05795 45.5966 4.46702C46.0078 3.23808 46.4698 2.01984 46.8402 0.777993C46.9149 0.526581 48.0703 0.294556 48.3419 0.221879ZM44.6881 10.093C45.7322 10.0539 46.2707 9.9852 47.3639 10.037C47.972 10.0359 49.9446 9.9463 50.3801 10.0601C49.5386 7.36351 48.4067 4.41529 47.6995 1.70453L47.6147 1.66154C46.9562 3.13524 46.3981 5.08116 45.8552 6.64144C45.5292 7.5778 44.8733 9.23358 44.6881 10.093Z" fill="var(--fill-0, #DECBB0)"/>
<path id="Vector_3" d="M26.5591 0.505827L27.2859 0.46875C27.3154 0.936104 27.383 4.76709 27.2683 4.96569C27.0835 4.9763 26.8555 5.06105 26.6777 5.04423C26.0027 4.98042 26.22 2.11505 25.7284 1.65383C25.2817 1.23472 19.749 1.40246 18.7948 1.41293C18.8827 1.98091 18.9256 7.6651 18.8121 8.18975C20.1316 8.11537 21.6344 8.25521 22.944 8.10273C23.4204 8.04722 23.7034 6.58917 23.9985 6.11325L24.0087 6.09691C24.183 6.03367 24.3923 5.98046 24.5729 5.92969C24.518 6.63233 24.2112 10.8904 23.9431 11.1956C23.8795 11.233 23.8337 11.2502 23.76 11.2441C23.1431 11.1927 23.4926 9.63545 23.1101 9.22595C22.835 8.93155 19.4015 9.02783 18.7712 9.00449C18.8134 9.15936 18.8388 9.31832 18.8471 9.47858C18.9109 10.7485 18.8107 12.3069 18.8521 13.6134C18.8659 14.0504 18.8837 15.9348 18.8244 16.2801C20.3195 16.2108 22.1983 16.2805 23.7514 16.2588C24.422 16.1908 25.376 16.3128 25.9197 15.9604C26.3794 15.1982 26.4851 13.5072 26.9205 12.7134C27.0003 12.5679 27.6013 12.5904 27.823 12.5829C27.8276 13.1396 27.6885 14.0262 27.6179 14.6225C27.5314 15.3535 27.4812 16.3897 27.3429 17.0894C27.1087 17.2324 24.8882 17.1572 24.499 17.1574L18.8166 17.1585C18.1538 17.154 17.4911 17.1563 16.8284 17.1654C16.3832 17.1708 15.6714 17.2033 15.254 17.1305C15.072 16.9216 15.2207 16.4596 15.426 16.3711C15.9596 16.1412 16.8274 16.2089 17.4267 16.1333C17.2883 15.3844 17.3584 12.6913 17.3639 11.7615L17.3617 4.97825C17.3683 4.23067 17.294 2.11266 17.3867 1.49817C16.9646 1.49113 15.6785 1.49882 15.37 1.29631C15.2691 1.23111 15.2015 1.12527 15.1848 1.0063C15.1574 0.820396 15.2344 0.527734 15.4742 0.523344C19.1411 0.455927 22.9028 0.643486 26.5591 0.505827Z" fill="var(--fill-0, #DECBB0)"/>
<path id="Vector_4" d="M39.2635 0.00272424C39.3261 -0.00601258 39.3357 0.00711433 39.3996 0.0299778C39.5569 0.306904 39.3605 4.08186 39.4726 4.73286C39.5665 5.27589 38.9023 5.14388 38.5376 5.13723C38.3751 4.47028 38.0938 1.98272 37.8509 1.607C37.4844 1.38979 37.1654 1.39631 36.8085 1.27856C34.0161 0.357674 30.4505 1.40261 31.0221 4.9528C31.2719 6.50478 33.2476 7.29205 34.5291 7.79027C35.7266 8.25575 37.0528 8.67834 38.1747 9.33651C40.1316 10.5513 40.654 13.2126 39.4061 15.1445C38.2512 16.9318 35.8731 17.673 33.8105 17.5631C33.1489 17.5195 30.2803 17.266 29.819 16.9638C29.7369 15.4836 29.3958 13.9273 29.3906 12.441C29.3899 12.2539 30.0965 12.3255 30.2643 12.4073C30.325 12.4751 31.1289 15.7786 31.2264 16.1506C32.4228 16.4427 33.8413 16.7672 35.0529 16.659C36.4112 16.5377 37.8487 15.9195 38.4972 14.6703C39.0766 13.554 39.0001 11.9177 38.036 11.0322C35.648 8.83764 30.5334 8.97683 29.8304 5.24955C29.2056 0.898226 33.5655 -0.471846 37.0915 0.274956C38.2073 0.511329 38.3003 0.28904 39.2635 0.00272424Z" fill="var(--fill-0, #DECBB0)"/>
<path id="Vector_5" d="M41.6481 22.4219C41.6785 22.4312 41.6794 22.4308 41.712 22.4439C42.0037 22.5604 42.5601 23.9565 42.7274 24.3246C42.9413 24.794 44.3726 27.8379 44.2527 28.1242C44.2374 28.1601 44.1501 28.1991 44.114 28.211C44.0514 28.2316 43.9745 28.2177 43.9171 28.1884C43.5511 28.0014 43.2946 27.0453 43.149 26.6738C42.6461 26.7017 41.9685 26.6845 41.4525 26.6861C41.0235 26.6974 40.5528 26.723 40.1303 26.6717C39.9747 27.1056 39.7864 27.8389 39.397 28.1035C39.2501 28.2036 39.021 28.2567 38.9141 28.0692C38.991 27.7028 39.6865 26.2522 39.8699 25.8363C40.3098 24.8396 40.7636 23.7837 41.2348 22.7992C41.3556 22.5476 41.3964 22.4996 41.6481 22.4219ZM40.3567 26.1626C40.791 26.1775 41.2365 26.1995 41.6699 26.1842C42.0298 26.1828 42.5283 26.1662 42.8774 26.1896C42.6657 25.6854 41.915 23.602 41.5994 23.3264C41.3817 23.7942 41.1722 24.2659 40.9718 24.7413C40.7757 25.2172 40.6023 25.7166 40.3567 26.1626Z" fill="var(--fill-0, #DECBB0)"/>
<path id="Vector_6" d="M16.4386 22.4689C16.6638 22.4673 16.7997 22.4745 16.9288 22.6803C17.2039 23.1191 17.3871 23.6127 17.5968 24.0857C17.9364 24.8375 18.2691 25.5925 18.5945 26.3506C18.6788 26.5503 18.9238 27.186 19.0257 27.3265C19.2321 27.2351 20.4721 24.0409 20.7143 23.6584C20.8695 23.4133 21.2484 22.1203 21.7137 22.583C21.8391 23.7411 21.719 26.6963 21.7312 27.9944C21.732 28.0802 21.6139 28.1497 21.5417 28.1889C21.3864 28.1726 21.4461 28.196 21.3178 28.0889C21.2147 27.9016 21.2436 25.5829 21.2386 25.1271C21.2388 24.9332 21.3094 24.1311 21.1909 24.0343C21.1053 24.1127 20.9515 24.4845 20.8855 24.5917C20.5086 25.2046 19.5264 27.8486 19.1207 28.2203L19.0503 28.2131C18.6538 27.8861 17.3644 24.7174 16.9696 23.9105C16.9008 24.6287 17.0355 27.7752 16.9032 28.1215C16.7281 28.2462 16.5169 28.2063 16.3716 28.0622C16.2647 27.7771 16.3814 22.9205 16.4386 22.4689Z" fill="var(--fill-0, #DECBB0)"/>
<path id="Vector_7" d="M27.3031 22.4219C28.0346 22.6328 28.2696 23.2562 28.714 23.8028C29.5246 24.7999 30.2597 26.1236 31.157 27.0236C31.1774 26.4226 31.1003 22.8494 31.2361 22.6004C31.2783 22.5229 31.3296 22.4853 31.4175 22.4675C31.4907 22.4526 31.6109 22.4739 31.6713 22.5163C31.7259 22.5545 31.7349 22.6236 31.7421 22.6872C31.8388 23.5477 31.7626 24.486 31.7628 25.3579C31.7629 26.199 31.8304 27.0688 31.7599 27.9059C31.7493 28.0318 31.7375 28.1354 31.6565 28.2375C31.0739 28.0906 30.7475 27.389 30.3773 26.9534C29.5423 25.9708 28.7394 24.4677 27.8201 23.596C27.7872 25.0575 27.8505 26.5514 27.798 28.0135C27.7947 28.105 27.7623 28.1179 27.6959 28.1597C27.6158 28.1574 27.2532 28.1671 27.2495 28.0395C27.2 26.2939 27.2483 24.5388 27.2342 22.7885C27.2332 22.6593 27.251 22.5404 27.3031 22.4219Z" fill="var(--fill-0, #DECBB0)"/>
<path id="Vector_8" d="M50.287 22.4531C50.3618 22.4642 50.3244 22.4509 50.39 22.5209C50.3488 22.7114 47.9785 24.8842 47.646 25.2135C48.4414 26.0754 49.8128 27.4563 50.7552 28.1872C50.5005 28.1869 50.204 28.2114 49.961 28.1271C49.9523 28.1241 49.9441 28.1209 49.9354 28.118C49.5781 27.9955 47.659 26.0694 47.2061 25.6856C47.1227 25.6146 47.0774 25.5581 46.9649 25.5671L46.9357 25.6445C46.9057 26.0885 46.8901 26.5233 46.8836 26.9758C46.8784 27.3366 47.0183 27.8869 46.6902 28.1615C46.6045 28.2328 46.5502 28.211 46.455 28.1918C46.2924 28.0777 46.2298 27.8684 46.2346 27.6746C46.2716 26.1492 46.2359 24.6212 46.2533 23.0953C46.2585 22.6594 46.2598 22.298 46.8201 22.5485C46.934 22.726 46.8997 24.7248 46.8714 25.0448C47.9198 24.3834 48.7248 23.145 49.7876 22.521C49.8698 22.4729 50.1775 22.459 50.287 22.4531Z" fill="var(--fill-0, #DECBB0)"/>
<path id="Vector_9" d="M10.7756 22.4688C11.3425 22.6105 13.4329 22.4628 14.0944 22.4975C14.2466 22.5055 14.2537 22.5105 14.3332 22.6027C14.3461 22.7483 14.3395 22.7646 14.2661 22.8917C14.1958 22.9475 14.078 23.0307 13.9922 23.0312C13.2038 23.0358 12.1429 23.1105 11.3775 23.0546C11.3526 23.7634 11.3662 24.3384 11.375 25.0481C11.9127 25.044 12.4532 25.0365 12.9907 25.0361C13.291 25.0359 13.9714 24.9639 14.1357 25.2212C14.0618 25.6154 13.2017 25.5428 12.8672 25.5492C12.3908 25.5584 11.8342 25.5911 11.3668 25.5284C11.2999 25.7817 11.3643 27.2463 11.3767 27.624C12.1685 27.5654 12.9892 27.6565 13.784 27.5776C14.0328 27.5529 14.385 27.5417 14.3518 27.8663C14.3261 28.1179 14.0181 28.2117 13.8158 28.1996C12.85 28.1419 11.8931 28.1738 10.9314 28.1541C10.8956 28.1533 10.7589 28.1228 10.7506 28.0679C10.8006 27.0811 10.532 23.1403 10.7756 22.4688Z" fill="var(--fill-0, #DECBB0)"/>
<path id="Vector_10" d="M6.61311 22.4531C7.16796 22.4749 7.71442 22.5565 8.17622 22.8859C8.35095 23.0105 8.51465 23.3144 8.35278 23.5067C8.04069 23.6067 7.61776 23.1851 7.27924 23.0973C6.12685 22.7983 4.55439 23.3065 5.44637 24.7752C6.52287 25.2553 8.63475 25.0395 8.63627 26.6904C8.63731 27.8201 7.2505 28.286 6.31045 28.2499C5.86944 28.1834 4.20327 27.7935 4.46529 27.103C4.68797 26.9887 4.86548 27.2473 5.07069 27.3333C5.96663 27.7083 7.02157 27.8633 7.80349 27.2512C7.8796 27.0295 7.95136 26.8228 7.93584 26.5782C7.86847 25.5165 5.65215 25.8614 4.94359 25.1318C4.67419 24.8927 4.5673 24.6135 4.54626 24.2491C4.46972 22.922 5.49141 22.5109 6.61311 22.4531Z" fill="var(--fill-0, #DECBB0)"/>
<path id="Vector_11" d="M37.7303 22.4889C37.9567 22.4704 38.2202 22.4641 38.4501 22.4531C38.0519 22.8886 37.3873 23.8388 37.0878 24.3676C36.8427 24.8071 36.3137 25.3893 36.1933 25.8431C36.0542 26.3665 36.3585 27.7737 36.0294 28.162C35.8751 28.2342 35.9429 28.2236 35.7721 28.1999C35.3883 27.889 35.6639 26.4408 35.5117 25.8509C35.357 25.2507 33.4061 22.871 33.512 22.4786C33.664 22.4882 33.8625 22.505 34.0001 22.5704C34.5359 22.8252 35.4857 24.8936 35.7825 25.0951C36.0303 25.0858 36.149 24.8059 36.2776 24.6229C36.7227 23.9901 37.2022 23.0218 37.7303 22.4889Z" fill="var(--fill-0, #DECBB0)"/>
<path id="Vector_12" d="M24.256 22.4813C24.4635 22.47 24.6154 22.431 24.7622 22.5893C24.8121 23.1474 24.836 28.0253 24.7084 28.2182C24.4757 28.2282 24.3553 28.2658 24.1927 28.1228C24.0612 27.6273 24.1892 23.5692 24.1763 22.8032C24.1747 22.7135 24.219 22.5696 24.256 22.4813Z" fill="var(--fill-0, #DECBB0)"/>
</g>
</svg>
