<svg preserveAspectRatio="none" width="100%" height="100%" overflow="visible" style="display: block;" viewBox="0 0 79.843 24.6263" fill="none" xmlns="http://www.w3.org/2000/svg">
<g id="Nuho" clip-path="url(#clip0_0_124)">
<path id="Vector" d="M69.1039 4.46735C71.6001 4.3418 74.0804 5.04684 76.0476 6.60605C80.1583 9.86408 80.7493 16.542 77.4675 20.5816C76.0609 22.3134 74.1194 23.501 71.9456 24.0074C71.2668 24.1634 70.4926 24.2331 69.8009 24.3111C69.7592 24.3126 69.7175 24.3138 69.6758 24.3146C66.9838 24.3652 64.1831 23.4346 62.2268 21.5564C58.4261 17.9074 58.3797 11.0594 62.0786 7.32528C63.9862 5.39944 66.4322 4.50721 69.1039 4.46735ZM70.0972 23.7772C77.8562 23.3874 78.9634 11.1684 74.0469 6.83661C72.6477 5.60382 70.8228 4.87769 68.9522 4.93092C66.8696 5.13156 65.5718 5.579 64.1652 7.22288C62.2724 9.43523 61.6896 12.9319 61.9804 15.7607C62.2135 18.0258 63.4661 20.6728 65.272 22.1059C66.8189 23.3333 68.1554 23.7889 70.0972 23.7772Z" fill="var(--fill-0, black)"/>
<path id="Vector_2" d="M39.8498 4.72624C40.6361 4.70236 41.4809 4.71366 42.2696 4.71798C42.1862 7.60845 42.318 10.688 42.2684 13.6032C43.6606 13.5765 44.9932 13.5998 46.3783 13.5932C48.6918 13.5776 51.0048 13.5749 53.3182 13.5851C53.2979 13.3368 53.3159 12.804 53.3163 12.5397L53.3186 10.4649C53.3205 8.59081 53.2913 6.61155 53.3393 4.74721C53.8145 4.68572 55.1724 4.72059 55.7143 4.72254L55.7154 24.0057C55.3451 24.0211 54.9615 24.0208 54.5899 24.0249C54.1852 24.02 53.7108 24.0025 53.3143 24.0422C53.4168 20.7559 53.2391 17.3922 53.3229 14.1002C52.2157 14.0333 50.6746 14.0731 49.5424 14.0709L42.2688 14.0665C42.2954 14.3101 42.2751 14.9369 42.2735 15.2235L42.2661 17.4418C42.2642 19.5717 42.3098 21.8852 42.2532 24.0035C41.4626 24.0323 40.6287 23.98 39.8412 24.0412L39.8396 13.0775C39.8389 10.3102 39.8084 7.48766 39.8498 4.72624Z" fill="var(--fill-0, black)"/>
<path id="Vector_3" d="M0.848604 4.5738C1.09387 4.55497 1.30011 4.56362 1.54417 4.5715C2.6707 5.80636 3.82449 7.13964 4.94015 8.39203L12.6753 17.0592C13.6851 18.1849 14.6936 19.3666 15.7219 20.4687C15.6802 19.9731 15.6822 15.3167 15.7475 15.2105L15.9118 15.1939L15.8972 15.1439L15.7566 15.1202C15.694 15.0368 15.6883 13.1566 15.6832 12.9005C15.6031 10.1714 15.4317 7.44572 15.1693 4.72806C15.6859 4.70737 16.217 4.71847 16.735 4.72276C16.5996 5.37867 16.5551 6.7466 16.5017 7.44712C16.367 9.21577 16.2867 10.9658 16.2308 12.7379L16.1935 14.3088C16.1891 14.5322 16.2036 14.9004 16.1649 15.1018C16.1163 15.132 16.0793 15.1513 16.0281 15.1768L16.1515 15.2042C16.2045 15.2854 16.2129 23.3546 16.1958 24.0584L16.174 24.0939C16.0685 24.1425 15.6732 24.1295 15.5338 24.1304C14.527 23.0528 13.5243 21.8458 12.5411 20.7384L5.23184 12.4518L2.97558 9.88259C2.75254 9.62428 1.57819 8.17203 1.37467 8.1734C1.41224 8.4432 1.39515 9.36855 1.39493 9.68756L1.38345 12.8919C1.37855 14.2694 1.36691 15.7504 1.41236 17.1264C1.46374 18.3823 1.53918 19.6372 1.63863 20.8903C1.70786 21.8575 1.76496 23.0701 1.90866 24.0071C1.35285 24.0268 0.874108 24.0222 0.320312 24.0079C0.378323 23.5896 0.39608 23.0789 0.44227 22.6481C0.671928 20.5062 0.727771 18.3377 0.780043 16.1838C0.890202 12.3148 0.913063 8.44382 0.848604 4.5738Z" fill="var(--fill-0, black)"/>
<path id="Vector_4" d="M34.2271 4.75651C34.5666 4.6792 35.4259 4.71166 35.8114 4.71774C35.7925 4.93361 35.7721 5.14932 35.7501 5.36488C35.6968 6.01677 35.5879 6.66684 35.5369 7.33186C35.4074 9.19349 35.3239 11.0581 35.2865 12.9238C35.2384 14.8571 35.419 16.6788 35.1195 18.5837C34.3572 23.4339 30.6009 24.7902 26.1399 24.0843C23.0643 23.5976 21.181 21.8508 20.7418 18.6959C20.5806 17.5386 20.6331 16.3346 20.6335 15.1854L20.6342 9.98308L20.6328 6.52531C20.6326 6.10071 20.6076 5.10845 20.6626 4.73083C21.2265 4.67909 22.4249 4.71525 23.0378 4.71758L23.0535 13.2512C23.0597 16.0311 22.5735 20.0982 25.1199 21.9878C26.4282 22.9587 28.3423 23.1115 29.9228 22.9287C34.8469 22.3591 34.7428 17.8225 34.7347 13.9521C34.7496 11.858 34.6785 9.76406 34.5216 7.6757C34.4504 6.70019 34.3833 5.7229 34.2271 4.75651Z" fill="var(--fill-0, black)"/>
<path id="Vector_5" d="M25.5179 0.368845C25.8647 0.326645 26.2858 0.427616 26.574 0.629107C26.8543 0.821395 27.0454 1.11843 27.104 1.45317C27.158 1.79672 27.0729 2.1476 26.8676 2.42832C26.5814 2.82351 26.1731 2.9506 25.7124 3.02294C25.3429 3.06726 24.8151 2.88765 24.5328 2.64525C24.27 2.41987 24.1079 2.09916 24.0823 1.75405C24.055 1.42833 24.1615 1.10553 24.3773 0.859904C24.6898 0.505006 25.0688 0.39905 25.5179 0.368845Z" fill="var(--fill-0, black)"/>
<path id="Vector_6" d="M31.9224 0.36814C32.2699 0.325015 32.6749 0.445303 32.9653 0.634882C33.6893 1.10745 33.651 2.28247 32.9326 2.74005C32.6489 2.92074 32.4248 2.95331 32.1029 3.00903C30.0492 3.01934 29.857 0.501168 31.9224 0.36814Z" fill="var(--fill-0, black)"/>
</g>
<defs>
<clipPath id="clip0_0_124">
<rect width="79.843" height="24.6263" fill="white"/>
</clipPath>
</defs>
</svg>
