<svg preserveAspectRatio="none" width="100%" height="100%" overflow="visible" style="display: block;" viewBox="0 0 63.9968 24.7115" fill="none" xmlns="http://www.w3.org/2000/svg">
<g id="NUHO Living Logo">
<path id="Vector" d="M55.9787 3.06943C58.0587 2.98817 60.2693 3.61924 61.7705 5.09565C63.1569 6.45916 63.7811 8.01713 63.9625 9.93035C64.3188 13.6916 61.8642 16.9716 58.2529 17.8678C57.7723 17.9866 57.2446 17.9942 56.7426 18.0233C54.4664 18.0907 52.6829 17.6926 50.9603 16.1432C48.0456 13.5215 47.8917 8.50311 50.4193 5.57817C51.8546 3.91751 53.8411 3.16746 55.9787 3.06943ZM56.9728 17.7081C58.2893 17.5937 59.5123 16.8929 60.3586 15.8841C61.6632 14.3296 62.1655 11.7325 61.9848 9.75005C61.8568 8.34542 61.3205 6.68334 60.4174 5.58629C60.1012 5.20197 59.7038 4.86506 59.3214 4.54747C58.3619 3.75076 56.8896 3.35445 55.6524 3.47276L55.633 3.47466C51.8172 3.89602 50.5483 7.56759 50.6438 10.9678C50.7392 14.3584 53.2522 17.9357 56.9728 17.7081Z" fill="var(--fill-0, #282420)"/>
<path id="Vector_2" d="M42.7096 3.2802C43.3369 3.25823 43.9812 3.26719 44.6102 3.26875C44.5524 3.92624 44.5901 5.24802 44.5901 5.93522L44.5908 11.0963V15.615C44.5895 16.247 44.5457 17.3657 44.5997 17.9375C44.3527 17.9064 44.059 17.9125 43.8066 17.9113L42.734 17.9127C42.7446 17.6427 42.7347 17.3451 42.7307 17.0722C42.6987 14.83 42.7636 12.574 42.715 10.3338C40.7733 10.4187 38.7349 10.292 36.7823 10.3429C36.0538 10.3619 35.1052 10.3856 34.3896 10.3325C34.3937 12.8186 34.3397 15.4693 34.3906 17.9389C33.8883 17.8867 33.0627 17.9089 32.5359 17.9094C32.5586 17.3744 32.5199 16.5975 32.5189 16.0312L32.5169 7.44277L32.5135 4.64785C32.5131 4.44761 32.4863 3.37996 32.5525 3.28274C33.1707 3.26923 33.7885 3.26512 34.4066 3.27038C34.3641 4.0001 34.3889 4.95525 34.3886 5.70008L34.392 9.99725C34.7849 9.96737 35.3735 9.99127 35.7848 9.99294L38.4316 9.99915L41.0916 9.99256C41.5769 9.99131 42.2596 9.9725 42.7235 10.0206L42.7276 5.70819C42.7279 4.97318 42.7565 3.99657 42.7096 3.2802Z" fill="var(--fill-0, #282420)"/>
<path id="Vector_3" d="M0.395588 3.15625L0.876169 3.17201C1.00346 3.27024 1.15993 3.41812 1.27014 3.53778C2.21813 4.56729 3.14298 5.6363 4.07066 6.68462L8.43039 11.5514C9.51807 12.7695 10.5461 13.9798 11.6839 15.1501C11.6528 13.7196 11.6731 12.2956 11.6545 10.867C11.6346 9.46695 11.5837 8.06752 11.5019 6.66972C11.4434 5.61294 11.3632 4.32967 11.2109 3.2824C11.6217 3.26623 12.033 3.26457 12.444 3.27744C12.3826 3.57296 12.3542 3.99021 12.3186 4.29802C12.2176 5.17137 12.1756 6.05121 12.1343 6.92928C12.0314 9.21809 11.9934 11.5093 12.0202 13.8002C12.0246 15.1573 12.0647 16.6579 12.0097 18.0037C11.8567 17.9837 11.6529 17.9857 11.4949 17.9826C11.1228 17.6284 10.5808 16.9619 10.2228 16.5501L8.21299 14.2587L2.73393 8.07998C2.51082 7.83217 2.28959 7.49305 2.08156 7.27251C1.64829 6.81318 1.22433 6.34004 0.792381 5.88201C0.822948 6.43145 0.797408 7.22578 0.796763 7.78986C0.792178 9.18705 0.79503 10.5842 0.805389 11.9814C0.822507 13.1904 0.877663 14.3986 0.970859 15.6041C1.03223 16.378 1.13089 17.1484 1.18595 17.9222C0.82271 17.9008 0.370523 17.9075 0 17.9043C0.161536 16.19 0.275799 14.4715 0.342673 12.7509C0.450439 9.59446 0.392022 6.32456 0.395588 3.15625Z" fill="var(--fill-0, #282420)"/>
<path id="Vector_4" d="M16.8239 3.2784C17.3723 3.2581 17.9707 3.26828 18.5228 3.26747C18.484 3.60985 18.5008 4.2906 18.5007 4.6504L18.5011 7.10763L18.496 10.4197C18.4897 12.2488 18.3828 15.0853 20.0373 16.3075C21.652 17.5004 25.1025 17.4366 26.3455 15.6655C27.5479 13.9523 27.3453 11.6436 27.3566 9.64452C27.3185 7.65327 27.2842 5.26741 26.9629 3.29042C27.3519 3.27385 27.7791 3.25691 28.1658 3.28248C28.1323 3.44723 28.1073 3.73868 28.0873 3.91433C27.8891 5.70107 27.8086 7.65412 27.766 9.45596C27.7291 11.0144 27.8334 12.6195 27.5918 14.1782C27.5109 14.6999 27.1625 15.5105 26.8804 15.9551C26.2491 16.9535 25.2403 17.6538 24.084 17.8963C23.6897 17.9829 23.201 17.9989 22.7938 18.0092C21.4049 18.0393 19.8805 17.9683 18.6786 17.1848C16.3249 15.6503 16.6377 12.6435 16.6399 10.2095L16.6436 5.71207C16.6431 5.41152 16.6057 3.40391 16.6713 3.30299L16.8239 3.2784Z" fill="var(--fill-0, #282420)"/>
<path id="Vector_5" d="M37.0921 23.9802C37.0707 23.5798 36.9572 21.0313 37.0792 20.8507C37.1301 20.7755 37.1794 20.7686 37.2615 20.75C37.3234 20.7639 37.3757 20.7729 37.4222 20.8198C37.5183 20.9165 37.465 24.1866 37.4646 24.6428C37.3515 24.6778 37.0944 24.6482 36.965 24.6398C36.2182 23.7438 35.5172 22.5036 34.8794 21.5088V24.6699C34.7157 24.6611 34.573 24.665 34.4103 24.669C34.4076 23.3988 34.4273 22.0411 34.375 20.7809C34.5951 20.7746 34.7666 20.7835 34.9867 20.797C35.4469 21.3281 35.525 21.6266 35.8826 22.1671C36.281 22.7686 36.6923 23.3768 37.0921 23.9802Z" fill="var(--fill-0, #282420)"/>
<path id="Vector_6" d="M42.9017 20.7347C43.4407 20.7289 43.7684 20.8024 44.282 20.9593C44.2069 21.0811 44.1257 21.2432 44.0565 21.3716C43.6132 21.1979 43.2987 21.0887 42.8073 21.1422C41.4827 21.2811 41.2256 23.3488 42.1644 24.0757C42.5543 24.3774 43.3045 24.2921 43.762 24.2187C43.7915 23.879 43.7881 23.3825 43.7919 23.0355C43.4886 23.0384 43.2352 23.1197 42.9673 23.0058C42.8823 22.8991 42.9129 22.8964 42.9156 22.7231C42.9228 22.6829 42.9394 22.6727 42.9673 22.6378C43.1561 22.6029 44.0113 22.6196 44.3091 22.603C44.2908 23.2284 44.3227 23.8739 44.3044 24.5113C42.9574 24.9358 41.1991 24.7904 41.0663 23.0354C40.9648 21.6912 41.5238 20.8651 42.9017 20.7347Z" fill="var(--fill-0, #282420)"/>
<path id="Vector_7" d="M26.3968 20.7554L26.9446 20.75C26.3982 22.0236 26.0749 23.4492 25.4983 24.6826L25.0129 24.6472C24.7214 24.0281 24.6069 23.5853 24.4074 22.9429C24.2993 22.5949 24.1248 22.1473 24 21.7952C23.8676 21.4535 23.7322 21.1129 23.5938 20.7736L24.1428 20.7767C24.2087 20.9022 24.3235 21.1277 24.3617 21.2622C24.6235 22.1849 24.9688 23.067 25.2613 23.981C25.483 23.3686 25.6776 22.7321 25.9129 22.1193C26.0657 21.7214 26.1421 21.0974 26.3968 20.7554Z" fill="var(--fill-0, #282420)"/>
<path id="Vector_8" d="M20.153 0.0154179C20.4737 -0.0198455 20.8268 -0.00398139 21.1106 0.162855C21.3375 0.294706 21.5015 0.512603 21.5654 0.767137C21.6307 1.02592 21.589 1.30008 21.4498 1.52775C21.2632 1.82629 21.0534 1.90701 20.74 1.97961C20.4148 2.02837 20.0798 2.019 19.7902 1.84497C19.5566 1.70443 19.3896 1.4757 19.3269 1.21047C19.1814 0.60588 19.5826 0.149476 20.153 0.0154179Z" fill="var(--fill-0, #282420)"/>
<path id="Vector_9" d="M25.0274 0.0152741C25.3658 -0.0192558 25.6901 -0.00875993 25.9798 0.191506C26.2004 0.343086 26.3497 0.57796 26.3934 0.842003C26.4964 1.4818 26.0949 1.89155 25.4939 1.99063C23.9081 2.17328 23.6309 0.258569 25.0274 0.0152741Z" fill="var(--fill-0, #282420)"/>
<path id="Vector_10" d="M14.4393 20.7659L14.8552 20.7344C14.8276 21.8774 14.8601 23.0852 14.8436 24.2431C15.2542 24.2235 16.1038 24.1851 16.5361 24.2709C16.6151 24.2866 16.6046 24.5289 16.5372 24.6279L16.4453 24.6297C15.7609 24.6321 15.014 24.6205 14.3346 24.6514C14.3594 23.62 14.3251 21.918 14.3283 20.8337C14.3284 20.798 14.3923 20.785 14.4393 20.7659Z" fill="var(--fill-0, #282420)"/>
<path id="Vector_11" d="M19.9132 20.7574C20.0688 20.759 20.2574 20.7433 20.4152 20.7344C20.3889 21.1008 20.4095 21.5402 20.4051 21.9125C20.3941 22.823 20.4295 23.7564 20.3928 24.6651L19.9264 24.6577C19.9003 24.5806 19.8773 24.2568 19.884 24.1866C19.9259 23.7512 19.8058 20.9284 19.9132 20.7574Z" fill="var(--fill-0, #282420)"/>
<path id="Vector_12" d="M30.594 20.7679L30.6531 20.7709L30.6893 20.8262C30.7333 21.6123 30.6963 22.4478 30.6828 23.2365C30.6783 23.4957 30.7759 24.5106 30.6585 24.6422L30.5519 24.6452C30.4102 24.6564 30.299 24.6838 30.1972 24.5975C30.1683 24.2588 30.1598 20.8786 30.1948 20.8103C30.3072 20.7521 30.4638 20.7671 30.594 20.7679Z" fill="var(--fill-0, #282420)"/>
</g>
</svg>
