<svg preserveAspectRatio="none" width="100%" height="100%" overflow="visible" style="display: block;" viewBox="0 0 84.1718 24.6263" fill="none" xmlns="http://www.w3.org/2000/svg">
<g id="Living" clip-path="url(#clip0_0_117)">
<path id="Vector" d="M47.068 4.5625C47.2813 4.56262 47.4991 4.5683 47.7125 4.57154C48.8242 5.73362 49.9947 7.1201 51.074 8.32736L58.3301 16.4569L60.5581 18.953C60.9654 19.4091 61.4759 20.0065 61.9 20.4202C61.9058 17.7228 61.937 15.0053 61.8901 12.3093C61.8692 11.1201 61.7397 9.84798 61.6756 8.65457C61.6049 7.34371 61.5466 6.03276 61.3702 4.73143C61.9017 4.7214 62.4335 4.72111 62.9653 4.73065C62.9176 5.0387 62.9106 5.42512 62.8675 5.74489C62.6862 7.09374 62.6427 8.4167 62.581 9.77566C62.4392 12.8682 62.3854 15.9641 62.4191 19.0596C62.4236 19.6331 62.4828 23.9541 62.408 24.1206L62.228 24.1445L61.6908 24.1393C61.3834 23.69 60.6111 22.8863 60.2301 22.4584C59.4336 21.5577 58.6425 20.6528 57.8558 19.7437L48.0022 8.53037C47.9007 8.41242 47.7055 8.16184 47.5612 8.15136C47.5834 8.64063 47.5637 9.27936 47.5628 9.77731L47.5575 13.2725C47.5764 16.9495 47.6837 20.334 48.1222 23.9999C47.5678 24.0211 47.0935 24.0209 46.5391 24.0105C46.8066 20.8849 46.9838 17.7522 47.0697 14.6164C47.1408 11.2943 47.0672 7.89564 47.068 4.5625Z" fill="var(--fill-0, black)"/>
<path id="Vector_2" d="M76.044 4.46279C78.4302 4.26886 80.5066 4.93846 82.4986 6.1722C82.4382 6.48658 82.1127 7.28465 81.987 7.65084C81.9652 7.6182 81.943 7.58584 81.92 7.55377C79.8255 4.5858 74.6417 4.14043 71.7951 6.20319C69.93 7.55456 69.1598 9.47516 68.7131 11.6436C67.6527 16.7904 69.7681 22.7381 75.4838 23.6934C77.8071 24.0878 79.5917 23.4662 81.4966 22.1007C81.5653 20.1396 81.5061 17.7416 81.502 15.7577C80.9204 15.7833 80.1202 15.7565 79.5202 15.7577C78.4705 15.7455 77.3986 15.7913 76.3604 15.7693C76.3608 15.6174 76.3424 15.4147 76.3329 15.2592C77.4105 15.2299 78.5921 15.2541 79.6788 15.2534C81.0528 15.2422 82.4267 15.2407 83.8007 15.2487L83.8101 19.449C83.811 20.1232 83.8245 20.81 83.7937 21.4822C83.7801 21.7849 83.1386 22.1477 82.8957 22.3186C81.0881 23.5918 78.8022 24.2491 76.598 24.3027C73.7782 24.3712 70.7639 23.5313 68.69 21.5457C66.6951 19.6071 65.9643 17.264 65.9273 14.5382C65.8899 11.764 66.5257 9.4257 68.473 7.36133C70.027 5.71388 72.0581 4.84908 74.2759 4.54916C74.8114 4.47672 75.4945 4.47385 76.044 4.46279Z" fill="var(--fill-0, black)"/>
<path id="Vector_3" d="M20.0977 4.72426C20.9525 4.71621 21.8074 4.71699 22.6622 4.72657C22.858 5.03758 23.1499 5.75828 23.3111 6.12854L24.4577 8.77008L28.6594 18.3375C28.7696 18.5877 29.7235 20.8413 29.7897 20.9198L29.8451 20.9077C29.9433 20.8045 30.7178 18.9266 30.8411 18.6325C32.3213 15.101 33.9276 11.6384 35.0209 7.96009C35.3317 6.91477 35.7017 5.79195 35.9215 4.72398C36.4544 4.71542 37.0073 4.72221 37.5418 4.72176C37.255 5.28849 36.8321 6.28583 36.5556 6.89466C35.3098 9.48285 34.2426 12.1069 33.1418 14.7525L31.1932 19.3235L29.8801 22.44C29.6625 22.949 29.3739 23.6654 29.1195 24.1309L28.424 24.1285C27.7387 22.4236 26.9136 20.5899 26.1784 18.8906L22.4242 10.1987L20.9349 6.75496C20.7054 6.22823 20.2384 5.23632 20.0977 4.72426Z" fill="var(--fill-0, black)"/>
<path id="Vector_4" d="M0.570312 4.73402C1.34226 4.70492 2.22677 4.72617 3.00695 4.7272L3.01475 15.9685C3.01454 18.4647 3.05252 21.0462 3.0098 23.5337C4.28299 23.4928 5.6253 23.5686 6.90724 23.5184C7.34154 23.5014 7.75796 23.4094 8.17347 23.3745C9.65573 23.2502 10.7843 22.9713 12.1972 22.5601L12.1147 22.9659C12.0612 23.3151 12.0034 23.6636 11.9411 24.0113C10.8707 24.0679 9.29179 24.0115 8.17733 24.0097C5.6426 23.9977 3.1078 24.0021 0.573099 24.0229L0.570312 4.73402Z" fill="var(--fill-0, black)"/>
<path id="Vector_5" d="M15.0249 4.73192C15.7913 4.70655 16.6521 4.72559 17.4255 4.72587L17.4267 18.3696L17.4265 22.248C17.4265 22.7877 17.4374 23.3846 17.4185 23.925C17.4166 23.9786 17.3981 23.976 17.3462 24.0148C16.6087 24.0322 15.7815 24.0239 15.0437 24.0043C15.009 19.1967 15.0025 14.389 15.0241 9.58136C15.0371 7.99792 14.9722 6.29665 15.0249 4.73192Z" fill="var(--fill-0, black)"/>
<path id="Vector_6" d="M40.0812 4.73367C40.8268 4.70465 41.7043 4.72681 42.4597 4.72734L42.4638 17.2713L42.4646 21.4185C42.465 22.2561 42.4843 23.175 42.4449 24.0049C41.6582 24.0191 40.8711 24.0199 40.0843 24.0074C40.0249 21.5517 40.0734 18.8925 40.0726 16.4205L40.0812 4.73367Z" fill="var(--fill-0, black)"/>
</g>
<defs>
<clipPath id="clip0_0_117">
<rect width="84.1718" height="24.6263" fill="white"/>
</clipPath>
</defs>
</svg>
